<mxfile host="app.diagrams.net" modified="2023-10-26T21:50:19.315Z" agent="Mozilla/5.0 (Macintosh; Intel Mac OS X 10_15_7) AppleWebKit/537.36 (KHTML, like Gecko) Chrome/118.0.0.0 Safari/537.36" version="22.0.8" etag="Vr08xdXQS6N4khHkZwvL" type="github">
  <diagram name="Page-1" id="qdk4hGiWt9IJAZWtmj5o">
    <mxGraphModel>
      <root>
        <mxCell id="0" />
        <mxCell id="1" parent="0" />
      </root>
    </mxGraphModel>
  </diagram>
</mxfile>
